<svg xmlns="http://www.w3.org/2000/svg" width="12" height="11.996" viewBox="0 0 12 11.996">
  <path id="close_1_" data-name="close (1)" d="M7.98,6l3.712-3.711a1.049,1.049,0,0,0,0-1.484L11.2.308a1.05,1.05,0,0,0-1.485,0L6,4.019,2.288.307A1.05,1.05,0,0,0,.8.307L.308.8a1.049,1.049,0,0,0,0,1.484L4.021,6,.309,9.709a1.049,1.049,0,0,0,0,1.484l.495.495a1.05,1.05,0,0,0,1.485,0L6,7.977l3.712,3.711a1.05,1.05,0,0,0,1.485,0l.495-.495a1.049,1.049,0,0,0,0-1.484Zm0,0" transform="translate(0 0)" fill="#db5b59"/>
</svg>
