<svg xmlns="http://www.w3.org/2000/svg" width="12.27" height="9.404" viewBox="0 0 12.27 9.404">
  <g id="correct-symbol_2_" data-name="correct-symbol (2)" transform="translate(0 -51.678)">
    <path id="Path_12" data-name="Path 12" d="M12.048,52.976,10.971,51.9a.764.764,0,0,0-1.077,0L4.7,57.1,2.375,54.765a.733.733,0,0,0-.538-.222.733.733,0,0,0-.538.222L.222,55.842a.765.765,0,0,0,0,1.077l2.865,2.865L4.164,60.86a.764.764,0,0,0,1.077,0l1.077-1.077,5.731-5.731a.765.765,0,0,0,0-1.077Z" fill="#aaa"/>
  </g>
</svg>
