<svg xmlns="http://www.w3.org/2000/svg" width="11.591" height="15.454" viewBox="0 0 11.591 15.454">
  <path id="file-alt-regular" d="M8.693,7.486v.845a.363.363,0,0,1-.362.362H3.26A.363.363,0,0,1,2.9,8.331V7.486a.363.363,0,0,1,.362-.362H8.331A.363.363,0,0,1,8.693,7.486ZM8.331,9.659H3.26a.363.363,0,0,0-.362.362v.845a.363.363,0,0,0,.362.362H8.331a.363.363,0,0,0,.362-.362v-.845A.363.363,0,0,0,8.331,9.659Zm3.26-5.678V14.006a1.449,1.449,0,0,1-1.449,1.449H1.449A1.449,1.449,0,0,1,0,14.006V1.449A1.449,1.449,0,0,1,1.449,0H7.609A1.449,1.449,0,0,1,8.633.426l2.532,2.532A1.444,1.444,0,0,1,11.591,3.981ZM7.727,1.567v2.3h2.3l-2.3-2.3Zm2.415,12.439V5.312H7a.723.723,0,0,1-.724-.724V1.449H1.449V14.006Z" fill="#333"/>
</svg>
