<svg id="shopping-cart-black-shape" xmlns="http://www.w3.org/2000/svg" width="15.673" height="13.262" viewBox="0 0 15.673 13.262">
  <g id="Group_24" data-name="Group 24">
    <path id="Path_2" data-name="Path 2" d="M365.446,366.659a1.206,1.206,0,1,0,.353-.853A1.162,1.162,0,0,0,365.446,366.659Z" transform="translate(-353.39 -354.602)" fill="#474747"/>
    <path id="Path_3" data-name="Path 3" d="M15.494,37.928a.579.579,0,0,0-.424-.179H3.758q-.01-.066-.042-.24t-.052-.278a1.661,1.661,0,0,0-.071-.249.751.751,0,0,0-.122-.231.6.6,0,0,0-.188-.146.575.575,0,0,0-.268-.061H.6a.58.58,0,0,0-.424.179.591.591,0,0,0,0,.848.58.58,0,0,0,.424.179H2.524L4.191,45.5q-.019.038-.193.358t-.278.56a1.034,1.034,0,0,0-.1.372.611.611,0,0,0,.6.6h9.645a.6.6,0,0,0,0-1.206H5.2a1.818,1.818,0,0,0,.226-.6,1.018,1.018,0,0,0-.024-.207q-.024-.113-.057-.25t-.042-.2l9.834-1.149a.585.585,0,0,0,.386-.2.594.594,0,0,0,.151-.4V38.352A.58.58,0,0,0,15.494,37.928Z" transform="translate(0 -36.543)" fill="#474747"/>
    <path id="Path_4" data-name="Path 4" d="M109.632,366.659a1.206,1.206,0,1,0,.353-.853A1.161,1.161,0,0,0,109.632,366.659Z" transform="translate(-106.015 -354.602)" fill="#474747"/>
  </g>
</svg>
