<svg xmlns="http://www.w3.org/2000/svg" width="14.367" height="13.702" viewBox="0 0 14.367 13.702">
  <path id="star-empty" d="M9.821,8.958,12.45,6.391,8.815,5.865,7.176,2.571,5.552,5.865,1.9,6.391,4.547,8.958l-.634,3.634,3.263-1.717,3.263,1.717Zm4.547-3.078a.64.64,0,0,1-.232.418L11.011,9.345l.742,4.315v.186q0,.433-.356.433a.686.686,0,0,1-.34-.108L7.176,12.129,3.31,14.17a.708.708,0,0,1-.356.108.3.3,0,0,1-.263-.139.521.521,0,0,1-.093-.294,1.641,1.641,0,0,1,.015-.186l.742-4.315L.217,6.3A.655.655,0,0,1,0,5.881q0-.325.479-.4L4.81,4.86,6.758.932q.17-.356.418-.356t.433.356L9.542,4.86l4.33.619q.495.077.495.4Z" transform="translate(0 -0.576)" fill="#0090f6"/>
</svg>
